<mxfile host="embed.diagrams.net" modified="2023-11-20T09:05:16.709Z" agent="Mozilla/5.0 (Windows NT 10.0; Win64; x64) AppleWebKit/537.36 (KHTML, like Gecko) Chrome/119.0.0.0 Safari/537.36" etag="X5X0rxR0gBLK60gtQsg1" version="22.1.3" type="embed">
  <diagram id="QtHtpTbmWbCuYp1KzGJP" name="Page-1">
    <mxGraphModel grid="1" page="1" gridSize="10" guides="1" tooltips="1" connect="1" arrows="1" fold="1" pageScale="1" pageWidth="827" pageHeight="1169" math="0" shadow="0">
      <root>
        <mxCell id="0" />
        <mxCell id="1" parent="0" />
        <mxCell id="NsUmTAHe3ccR_zdvVloB-1" value="" style="group" connectable="0" vertex="1" parent="1">
          <mxGeometry x="200" y="170" width="170" height="100" as="geometry" />
        </mxCell>
        <mxCell id="NsUmTAHe3ccR_zdvVloB-2" value="" style="rounded=0;whiteSpace=wrap;html=1;" vertex="1" parent="NsUmTAHe3ccR_zdvVloB-1">
          <mxGeometry width="170" height="100" as="geometry" />
        </mxCell>
        <mxCell id="NsUmTAHe3ccR_zdvVloB-3" value="" style="rounded=0;whiteSpace=wrap;html=1;" vertex="1" parent="NsUmTAHe3ccR_zdvVloB-1">
          <mxGeometry width="170" height="50" as="geometry" />
        </mxCell>
        <mxCell id="NsUmTAHe3ccR_zdvVloB-4" value="" style="endArrow=none;html=1;rounded=0;exitX=0.5;exitY=1;exitDx=0;exitDy=0;entryX=0.5;entryY=1;entryDx=0;entryDy=0;" edge="1" parent="NsUmTAHe3ccR_zdvVloB-1" source="NsUmTAHe3ccR_zdvVloB-2" target="NsUmTAHe3ccR_zdvVloB-3">
          <mxGeometry width="50" height="50" relative="1" as="geometry">
            <mxPoint x="85" y="80" as="sourcePoint" />
            <mxPoint x="85" y="60" as="targetPoint" />
          </mxGeometry>
        </mxCell>
        <mxCell id="NsUmTAHe3ccR_zdvVloB-5" value="Connexion au compte" style="text;html=1;strokeColor=none;fillColor=none;align=center;verticalAlign=middle;whiteSpace=wrap;rounded=0;" vertex="1" parent="NsUmTAHe3ccR_zdvVloB-1">
          <mxGeometry width="170" height="50" as="geometry" />
        </mxCell>
        <mxCell id="NsUmTAHe3ccR_zdvVloB-6" value="Connexion réussie" style="text;html=1;strokeColor=none;fillColor=none;align=center;verticalAlign=middle;whiteSpace=wrap;rounded=0;" vertex="1" parent="NsUmTAHe3ccR_zdvVloB-1">
          <mxGeometry y="50" width="85" height="50" as="geometry" />
        </mxCell>
        <mxCell id="NsUmTAHe3ccR_zdvVloB-7" value="Connexion impossible" style="text;html=1;strokeColor=none;fillColor=none;align=center;verticalAlign=middle;whiteSpace=wrap;rounded=0;" vertex="1" parent="NsUmTAHe3ccR_zdvVloB-1">
          <mxGeometry x="85" y="50" width="85" height="50" as="geometry" />
        </mxCell>
        <mxCell id="NsUmTAHe3ccR_zdvVloB-8" value="" style="endArrow=classic;html=1;rounded=0;entryX=1;entryY=0.5;entryDx=0;entryDy=0;exitX=0.5;exitY=1;exitDx=0;exitDy=0;" edge="1" parent="NsUmTAHe3ccR_zdvVloB-1" source="NsUmTAHe3ccR_zdvVloB-7" target="NsUmTAHe3ccR_zdvVloB-5">
          <mxGeometry width="50" height="50" relative="1" as="geometry">
            <mxPoint x="120" y="100" as="sourcePoint" />
            <mxPoint x="120" y="140" as="targetPoint" />
            <Array as="points">
              <mxPoint x="128" y="120" />
              <mxPoint x="240" y="120" />
              <mxPoint x="240" y="25" />
            </Array>
          </mxGeometry>
        </mxCell>
        <mxCell id="NsUmTAHe3ccR_zdvVloB-9" value="&lt;font style=&quot;font-size: 22px;&quot;&gt;Compte du gestionnaire&lt;/font&gt;" style="text;html=1;strokeColor=none;fillColor=none;align=center;verticalAlign=middle;whiteSpace=wrap;rounded=0;" vertex="1" parent="1">
          <mxGeometry x="165" y="50" width="240" height="30" as="geometry" />
        </mxCell>
        <mxCell id="NsUmTAHe3ccR_zdvVloB-10" value="" style="group" connectable="0" vertex="1" parent="1">
          <mxGeometry x="230" y="140" width="110" height="30" as="geometry" />
        </mxCell>
        <mxCell id="NsUmTAHe3ccR_zdvVloB-11" value="" style="triangle;whiteSpace=wrap;html=1;rotation=90;" vertex="1" parent="NsUmTAHe3ccR_zdvVloB-10">
          <mxGeometry x="40" y="-40" width="30" height="110" as="geometry" />
        </mxCell>
        <mxCell id="NsUmTAHe3ccR_zdvVloB-12" value="" style="endArrow=classic;html=1;rounded=0;exitX=0.5;exitY=1;exitDx=0;exitDy=0;entryX=0;entryY=0.5;entryDx=0;entryDy=0;" edge="1" parent="1" source="NsUmTAHe3ccR_zdvVloB-9" target="NsUmTAHe3ccR_zdvVloB-11">
          <mxGeometry width="50" height="50" relative="1" as="geometry">
            <mxPoint x="300" y="300" as="sourcePoint" />
            <mxPoint x="350" y="250" as="targetPoint" />
          </mxGeometry>
        </mxCell>
        <mxCell id="NsUmTAHe3ccR_zdvVloB-15" value="" style="endArrow=classic;html=1;rounded=0;exitX=0;exitY=1;exitDx=0;exitDy=0;entryX=0;entryY=0.5;entryDx=0;entryDy=0;" edge="1" parent="1" source="NsUmTAHe3ccR_zdvVloB-33" target="NsUmTAHe3ccR_zdvVloB-23">
          <mxGeometry width="50" height="50" relative="1" as="geometry">
            <mxPoint x="132.5" y="400" as="sourcePoint" />
            <mxPoint x="251" y="260" as="targetPoint" />
          </mxGeometry>
        </mxCell>
        <mxCell id="NsUmTAHe3ccR_zdvVloB-16" value="" style="group" connectable="0" vertex="1" parent="1">
          <mxGeometry x="-40" y="551" width="170" height="100" as="geometry" />
        </mxCell>
        <mxCell id="NsUmTAHe3ccR_zdvVloB-17" value="" style="rounded=0;whiteSpace=wrap;html=1;" vertex="1" parent="NsUmTAHe3ccR_zdvVloB-16">
          <mxGeometry width="170" height="100" as="geometry" />
        </mxCell>
        <mxCell id="NsUmTAHe3ccR_zdvVloB-18" value="" style="rounded=0;whiteSpace=wrap;html=1;" vertex="1" parent="NsUmTAHe3ccR_zdvVloB-16">
          <mxGeometry width="170" height="50" as="geometry" />
        </mxCell>
        <mxCell id="NsUmTAHe3ccR_zdvVloB-19" value="" style="endArrow=none;html=1;rounded=0;exitX=0.5;exitY=1;exitDx=0;exitDy=0;entryX=0.5;entryY=1;entryDx=0;entryDy=0;" edge="1" parent="NsUmTAHe3ccR_zdvVloB-16" source="NsUmTAHe3ccR_zdvVloB-17" target="NsUmTAHe3ccR_zdvVloB-18">
          <mxGeometry width="50" height="50" relative="1" as="geometry">
            <mxPoint x="85" y="80" as="sourcePoint" />
            <mxPoint x="85" y="60" as="targetPoint" />
          </mxGeometry>
        </mxCell>
        <mxCell id="NsUmTAHe3ccR_zdvVloB-20" value="Alerte manque d&#39;un ingrédient" style="text;html=1;strokeColor=none;fillColor=none;align=center;verticalAlign=middle;whiteSpace=wrap;rounded=0;" vertex="1" parent="NsUmTAHe3ccR_zdvVloB-16">
          <mxGeometry width="170" height="50" as="geometry" />
        </mxCell>
        <mxCell id="NsUmTAHe3ccR_zdvVloB-21" value="Oui" style="text;html=1;strokeColor=none;fillColor=none;align=center;verticalAlign=middle;whiteSpace=wrap;rounded=0;" vertex="1" parent="NsUmTAHe3ccR_zdvVloB-16">
          <mxGeometry y="50" width="85" height="50" as="geometry" />
        </mxCell>
        <mxCell id="NsUmTAHe3ccR_zdvVloB-22" value="Non" style="text;html=1;strokeColor=none;fillColor=none;align=center;verticalAlign=middle;whiteSpace=wrap;rounded=0;" vertex="1" parent="NsUmTAHe3ccR_zdvVloB-16">
          <mxGeometry x="85" y="50" width="85" height="50" as="geometry" />
        </mxCell>
        <mxCell id="NsUmTAHe3ccR_zdvVloB-23" value="" style="triangle;whiteSpace=wrap;html=1;rotation=90;" vertex="1" parent="1">
          <mxGeometry x="30" y="480" width="30" height="110" as="geometry" />
        </mxCell>
        <mxCell id="NsUmTAHe3ccR_zdvVloB-24" value="" style="group" connectable="0" vertex="1" parent="1">
          <mxGeometry x="136" y="551" width="213" height="100" as="geometry" />
        </mxCell>
        <mxCell id="NsUmTAHe3ccR_zdvVloB-25" value="" style="rounded=0;whiteSpace=wrap;html=1;" vertex="1" parent="NsUmTAHe3ccR_zdvVloB-24">
          <mxGeometry width="213" height="100" as="geometry" />
        </mxCell>
        <mxCell id="NsUmTAHe3ccR_zdvVloB-26" value="" style="rounded=0;whiteSpace=wrap;html=1;" vertex="1" parent="NsUmTAHe3ccR_zdvVloB-24">
          <mxGeometry width="213" height="50" as="geometry" />
        </mxCell>
        <mxCell id="NsUmTAHe3ccR_zdvVloB-27" value="" style="endArrow=none;html=1;rounded=0;exitX=1;exitY=0;exitDx=0;exitDy=0;entryX=1;entryY=1;entryDx=0;entryDy=0;" edge="1" parent="NsUmTAHe3ccR_zdvVloB-24" source="NsUmTAHe3ccR_zdvVloB-29" target="NsUmTAHe3ccR_zdvVloB-29">
          <mxGeometry width="50" height="50" relative="1" as="geometry">
            <mxPoint x="106.5" y="80" as="sourcePoint" />
            <mxPoint x="106.5" y="60" as="targetPoint" />
          </mxGeometry>
        </mxCell>
        <mxCell id="NsUmTAHe3ccR_zdvVloB-28" value="Chiffre d&#39;affaire" style="text;html=1;strokeColor=none;fillColor=none;align=center;verticalAlign=middle;whiteSpace=wrap;rounded=0;" vertex="1" parent="NsUmTAHe3ccR_zdvVloB-24">
          <mxGeometry width="213" height="50" as="geometry" />
        </mxCell>
        <mxCell id="NsUmTAHe3ccR_zdvVloB-29" value="Journalier&lt;span style=&quot;white-space: pre;&quot;&gt;&#x9;&lt;/span&gt;" style="text;html=1;strokeColor=none;fillColor=none;align=center;verticalAlign=middle;whiteSpace=wrap;rounded=0;rotation=0;" vertex="1" parent="NsUmTAHe3ccR_zdvVloB-24">
          <mxGeometry y="50" width="66.8609865470852" height="50" as="geometry" />
        </mxCell>
        <mxCell id="NsUmTAHe3ccR_zdvVloB-30" value="Mensuel" style="text;html=1;strokeColor=none;fillColor=none;align=center;verticalAlign=middle;whiteSpace=wrap;rounded=0;" vertex="1" parent="NsUmTAHe3ccR_zdvVloB-24">
          <mxGeometry x="143.27354260089686" y="50" width="69.72645739910314" height="50" as="geometry" />
        </mxCell>
        <mxCell id="fhjNqELQvabnsKbiw1ai-8" value="" style="endArrow=none;html=1;rounded=0;exitX=0;exitY=1;exitDx=0;exitDy=0;entryX=0;entryY=0;entryDx=0;entryDy=0;" edge="1" parent="NsUmTAHe3ccR_zdvVloB-24" source="NsUmTAHe3ccR_zdvVloB-30" target="NsUmTAHe3ccR_zdvVloB-30">
          <mxGeometry width="50" height="50" relative="1" as="geometry">
            <mxPoint x="337.17040358744396" y="169" as="sourcePoint" />
            <mxPoint x="384.92825112107624" y="119" as="targetPoint" />
          </mxGeometry>
        </mxCell>
        <mxCell id="fhjNqELQvabnsKbiw1ai-10" value="Hebdomadaire" style="text;html=1;strokeColor=none;fillColor=none;align=center;verticalAlign=middle;whiteSpace=wrap;rounded=0;" vertex="1" parent="NsUmTAHe3ccR_zdvVloB-24">
          <mxGeometry x="66.8609865470852" y="50" width="76.41255605381166" height="50" as="geometry" />
        </mxCell>
        <mxCell id="NsUmTAHe3ccR_zdvVloB-31" value="" style="triangle;whiteSpace=wrap;html=1;rotation=90;" vertex="1" parent="1">
          <mxGeometry x="227" y="480" width="30" height="110" as="geometry" />
        </mxCell>
        <mxCell id="NsUmTAHe3ccR_zdvVloB-32" value="" style="endArrow=classic;html=1;rounded=0;exitX=0.5;exitY=1;exitDx=0;exitDy=0;entryX=0.5;entryY=0;entryDx=0;entryDy=0;" edge="1" parent="1" source="NsUmTAHe3ccR_zdvVloB-33" target="fhjNqELQvabnsKbiw1ai-4">
          <mxGeometry width="50" height="50" relative="1" as="geometry">
            <mxPoint x="132.5" y="400" as="sourcePoint" />
            <mxPoint x="220" y="260" as="targetPoint" />
          </mxGeometry>
        </mxCell>
        <mxCell id="NsUmTAHe3ccR_zdvVloB-33" value="Accueil du compte" style="ellipse;whiteSpace=wrap;html=1;" vertex="1" parent="1">
          <mxGeometry x="182.5" y="320" width="120" height="80" as="geometry" />
        </mxCell>
        <mxCell id="NsUmTAHe3ccR_zdvVloB-34" value="" style="endArrow=classic;html=1;rounded=0;entryX=0.5;entryY=0;entryDx=0;entryDy=0;exitX=0.5;exitY=1;exitDx=0;exitDy=0;" edge="1" parent="1" source="NsUmTAHe3ccR_zdvVloB-6" target="NsUmTAHe3ccR_zdvVloB-33">
          <mxGeometry width="50" height="50" relative="1" as="geometry">
            <mxPoint x="260" y="410" as="sourcePoint" />
            <mxPoint x="310" y="360" as="targetPoint" />
          </mxGeometry>
        </mxCell>
        <mxCell id="NsUmTAHe3ccR_zdvVloB-35" value="" style="endArrow=classic;html=1;rounded=0;exitX=0.5;exitY=1;exitDx=0;exitDy=0;entryX=0.5;entryY=1;entryDx=0;entryDy=0;" edge="1" parent="1" source="NsUmTAHe3ccR_zdvVloB-21" target="NsUmTAHe3ccR_zdvVloB-36">
          <mxGeometry width="50" height="50" relative="1" as="geometry">
            <mxPoint x="100" y="610" as="sourcePoint" />
            <mxPoint x="-60" y="680" as="targetPoint" />
            <Array as="points">
              <mxPoint x="3" y="670" />
              <mxPoint x="-90" y="670" />
            </Array>
          </mxGeometry>
        </mxCell>
        <mxCell id="NsUmTAHe3ccR_zdvVloB-36" value="Passe commande de l&#39;ingrédient manquant" style="ellipse;whiteSpace=wrap;html=1;" vertex="1" parent="1">
          <mxGeometry x="-150" y="320" width="120" height="80" as="geometry" />
        </mxCell>
        <mxCell id="NsUmTAHe3ccR_zdvVloB-37" value="" style="endArrow=classic;html=1;rounded=0;exitX=1;exitY=0.5;exitDx=0;exitDy=0;entryX=0;entryY=0.5;entryDx=0;entryDy=0;" edge="1" parent="1" source="NsUmTAHe3ccR_zdvVloB-36" target="NsUmTAHe3ccR_zdvVloB-33">
          <mxGeometry width="50" height="50" relative="1" as="geometry">
            <mxPoint x="-110" y="610" as="sourcePoint" />
            <mxPoint x="180" y="360" as="targetPoint" />
          </mxGeometry>
        </mxCell>
        <mxCell id="NsUmTAHe3ccR_zdvVloB-38" value="" style="endArrow=classic;html=1;exitX=0.5;exitY=1;exitDx=0;exitDy=0;entryX=0;entryY=0;entryDx=0;entryDy=0;rounded=0;" edge="1" parent="1" source="NsUmTAHe3ccR_zdvVloB-22" target="NsUmTAHe3ccR_zdvVloB-33">
          <mxGeometry width="50" height="50" relative="1" as="geometry">
            <mxPoint x="240" y="620" as="sourcePoint" />
            <mxPoint x="290" y="570" as="targetPoint" />
            <Array as="points">
              <mxPoint x="88" y="700" />
              <mxPoint x="-160" y="700" />
              <mxPoint x="-160" y="300" />
            </Array>
          </mxGeometry>
        </mxCell>
        <mxCell id="NsUmTAHe3ccR_zdvVloB-53" value="" style="group" connectable="0" vertex="1" parent="1">
          <mxGeometry x="563" y="540" width="170" height="100" as="geometry" />
        </mxCell>
        <mxCell id="NsUmTAHe3ccR_zdvVloB-54" value="" style="rounded=0;whiteSpace=wrap;html=1;" vertex="1" parent="NsUmTAHe3ccR_zdvVloB-53">
          <mxGeometry width="170" height="100" as="geometry" />
        </mxCell>
        <mxCell id="NsUmTAHe3ccR_zdvVloB-55" value="" style="rounded=0;whiteSpace=wrap;html=1;" vertex="1" parent="NsUmTAHe3ccR_zdvVloB-53">
          <mxGeometry width="170" height="50" as="geometry" />
        </mxCell>
        <mxCell id="NsUmTAHe3ccR_zdvVloB-56" value="" style="endArrow=none;html=1;rounded=0;exitX=0.5;exitY=1;exitDx=0;exitDy=0;entryX=0.5;entryY=1;entryDx=0;entryDy=0;" edge="1" parent="NsUmTAHe3ccR_zdvVloB-53" source="NsUmTAHe3ccR_zdvVloB-54" target="NsUmTAHe3ccR_zdvVloB-55">
          <mxGeometry width="50" height="50" relative="1" as="geometry">
            <mxPoint x="85" y="80" as="sourcePoint" />
            <mxPoint x="85" y="60" as="targetPoint" />
          </mxGeometry>
        </mxCell>
        <mxCell id="NsUmTAHe3ccR_zdvVloB-57" value="Pizza déjà existante" style="text;html=1;strokeColor=none;fillColor=none;align=center;verticalAlign=middle;whiteSpace=wrap;rounded=0;" vertex="1" parent="NsUmTAHe3ccR_zdvVloB-53">
          <mxGeometry width="170" height="50" as="geometry" />
        </mxCell>
        <mxCell id="NsUmTAHe3ccR_zdvVloB-58" value="Non" style="text;html=1;strokeColor=none;fillColor=none;align=center;verticalAlign=middle;whiteSpace=wrap;rounded=0;rotation=0;" vertex="1" parent="NsUmTAHe3ccR_zdvVloB-53">
          <mxGeometry y="50" width="85" height="50" as="geometry" />
        </mxCell>
        <mxCell id="NsUmTAHe3ccR_zdvVloB-59" value="Oui" style="text;html=1;strokeColor=none;fillColor=none;align=center;verticalAlign=middle;whiteSpace=wrap;rounded=0;" vertex="1" parent="NsUmTAHe3ccR_zdvVloB-53">
          <mxGeometry x="85" y="50" width="85" height="50" as="geometry" />
        </mxCell>
        <mxCell id="NsUmTAHe3ccR_zdvVloB-60" value="" style="triangle;whiteSpace=wrap;html=1;rotation=90;" vertex="1" parent="1">
          <mxGeometry x="632" y="468" width="30" height="110" as="geometry" />
        </mxCell>
        <mxCell id="NsUmTAHe3ccR_zdvVloB-61" value="" style="endArrow=classic;html=1;rounded=0;exitX=1;exitY=1;exitDx=0;exitDy=0;entryX=0;entryY=0.5;entryDx=0;entryDy=0;" edge="1" parent="1" source="NsUmTAHe3ccR_zdvVloB-63" target="NsUmTAHe3ccR_zdvVloB-60">
          <mxGeometry width="50" height="50" relative="1" as="geometry">
            <mxPoint x="575.4264068711927" y="480.00427124746193" as="sourcePoint" />
            <mxPoint x="556" y="261.72" as="targetPoint" />
          </mxGeometry>
        </mxCell>
        <mxCell id="NsUmTAHe3ccR_zdvVloB-64" value="" style="endArrow=classic;html=1;rounded=0;exitX=0.988;exitY=0.688;exitDx=0;exitDy=0;entryX=0.042;entryY=0.325;entryDx=0;entryDy=0;entryPerimeter=0;exitPerimeter=0;" edge="1" parent="1" source="NsUmTAHe3ccR_zdvVloB-33" target="NsUmTAHe3ccR_zdvVloB-63">
          <mxGeometry width="50" height="50" relative="1" as="geometry">
            <mxPoint x="285" y="388" as="sourcePoint" />
            <mxPoint x="445" y="520" as="targetPoint" />
          </mxGeometry>
        </mxCell>
        <mxCell id="NsUmTAHe3ccR_zdvVloB-63" value="Souhaite créer une nouvelle pizza" style="ellipse;whiteSpace=wrap;html=1;" vertex="1" parent="1">
          <mxGeometry x="460" y="400" width="120" height="80" as="geometry" />
        </mxCell>
        <mxCell id="NsUmTAHe3ccR_zdvVloB-65" value="Change les ingrédients de la nouvelle pizza" style="ellipse;whiteSpace=wrap;html=1;" vertex="1" parent="1">
          <mxGeometry x="790" y="575" width="120" height="80" as="geometry" />
        </mxCell>
        <mxCell id="NsUmTAHe3ccR_zdvVloB-66" value="" style="endArrow=classic;html=1;rounded=0;entryX=0;entryY=0.5;entryDx=0;entryDy=0;exitX=1;exitY=0.5;exitDx=0;exitDy=0;" edge="1" parent="1" source="NsUmTAHe3ccR_zdvVloB-59" target="NsUmTAHe3ccR_zdvVloB-65">
          <mxGeometry width="50" height="50" relative="1" as="geometry">
            <mxPoint x="623" y="621.72" as="sourcePoint" />
            <mxPoint x="673" y="571.72" as="targetPoint" />
          </mxGeometry>
        </mxCell>
        <mxCell id="NsUmTAHe3ccR_zdvVloB-67" value="" style="endArrow=classic;html=1;rounded=0;entryX=0.5;entryY=0;entryDx=0;entryDy=0;exitX=0.5;exitY=0;exitDx=0;exitDy=0;" edge="1" parent="1" source="NsUmTAHe3ccR_zdvVloB-65" target="NsUmTAHe3ccR_zdvVloB-60">
          <mxGeometry width="50" height="50" relative="1" as="geometry">
            <mxPoint x="623" y="621.72" as="sourcePoint" />
            <mxPoint x="673" y="571.72" as="targetPoint" />
            <Array as="points">
              <mxPoint x="850" y="523" />
            </Array>
          </mxGeometry>
        </mxCell>
        <mxCell id="NsUmTAHe3ccR_zdvVloB-68" value="A OU B" style="text;html=1;strokeColor=none;fillColor=none;align=center;verticalAlign=middle;whiteSpace=wrap;rounded=0;" vertex="1" parent="1">
          <mxGeometry x="612" y="505.72" width="68" height="30" as="geometry" />
        </mxCell>
        <mxCell id="NsUmTAHe3ccR_zdvVloB-69" value="Nommage de la nouvelle&amp;nbsp;pizza" style="ellipse;whiteSpace=wrap;html=1;" vertex="1" parent="1">
          <mxGeometry x="545.5" y="691.72" width="120" height="80" as="geometry" />
        </mxCell>
        <mxCell id="NsUmTAHe3ccR_zdvVloB-70" value="" style="endArrow=classic;html=1;rounded=0;exitX=0.5;exitY=1;exitDx=0;exitDy=0;entryX=0.5;entryY=0;entryDx=0;entryDy=0;" edge="1" parent="1" source="NsUmTAHe3ccR_zdvVloB-58" target="NsUmTAHe3ccR_zdvVloB-69">
          <mxGeometry width="50" height="50" relative="1" as="geometry">
            <mxPoint x="623" y="721.72" as="sourcePoint" />
            <mxPoint x="673" y="671.72" as="targetPoint" />
          </mxGeometry>
        </mxCell>
        <mxCell id="NsUmTAHe3ccR_zdvVloB-71" value="" style="group" connectable="0" vertex="1" parent="1">
          <mxGeometry x="520" y="852.72" width="170" height="100" as="geometry" />
        </mxCell>
        <mxCell id="NsUmTAHe3ccR_zdvVloB-72" value="" style="rounded=0;whiteSpace=wrap;html=1;" vertex="1" parent="NsUmTAHe3ccR_zdvVloB-71">
          <mxGeometry width="170" height="100" as="geometry" />
        </mxCell>
        <mxCell id="NsUmTAHe3ccR_zdvVloB-73" value="" style="rounded=0;whiteSpace=wrap;html=1;" vertex="1" parent="NsUmTAHe3ccR_zdvVloB-71">
          <mxGeometry width="170" height="50" as="geometry" />
        </mxCell>
        <mxCell id="NsUmTAHe3ccR_zdvVloB-74" value="" style="endArrow=none;html=1;rounded=0;exitX=0.5;exitY=1;exitDx=0;exitDy=0;entryX=0.5;entryY=1;entryDx=0;entryDy=0;" edge="1" parent="NsUmTAHe3ccR_zdvVloB-71" source="NsUmTAHe3ccR_zdvVloB-72" target="NsUmTAHe3ccR_zdvVloB-73">
          <mxGeometry width="50" height="50" relative="1" as="geometry">
            <mxPoint x="85" y="80" as="sourcePoint" />
            <mxPoint x="85" y="60" as="targetPoint" />
          </mxGeometry>
        </mxCell>
        <mxCell id="NsUmTAHe3ccR_zdvVloB-75" value="Nom déjà utilisé" style="text;html=1;strokeColor=none;fillColor=none;align=center;verticalAlign=middle;whiteSpace=wrap;rounded=0;" vertex="1" parent="NsUmTAHe3ccR_zdvVloB-71">
          <mxGeometry width="170" height="50" as="geometry" />
        </mxCell>
        <mxCell id="NsUmTAHe3ccR_zdvVloB-76" value="Non" style="text;html=1;strokeColor=none;fillColor=none;align=center;verticalAlign=middle;whiteSpace=wrap;rounded=0;rotation=0;" vertex="1" parent="NsUmTAHe3ccR_zdvVloB-71">
          <mxGeometry y="50" width="85" height="50" as="geometry" />
        </mxCell>
        <mxCell id="NsUmTAHe3ccR_zdvVloB-77" value="Oui" style="text;html=1;strokeColor=none;fillColor=none;align=center;verticalAlign=middle;whiteSpace=wrap;rounded=0;" vertex="1" parent="NsUmTAHe3ccR_zdvVloB-71">
          <mxGeometry x="85" y="50" width="85" height="50" as="geometry" />
        </mxCell>
        <mxCell id="NsUmTAHe3ccR_zdvVloB-78" value="" style="triangle;whiteSpace=wrap;html=1;rotation=90;" vertex="1" parent="1">
          <mxGeometry x="590" y="781.72" width="30" height="110" as="geometry" />
        </mxCell>
        <mxCell id="NsUmTAHe3ccR_zdvVloB-79" value="Change le nom de la nouvelle pizza" style="ellipse;whiteSpace=wrap;html=1;" vertex="1" parent="1">
          <mxGeometry x="760" y="886.72" width="120" height="80" as="geometry" />
        </mxCell>
        <mxCell id="NsUmTAHe3ccR_zdvVloB-80" value="" style="endArrow=classic;html=1;rounded=0;entryX=0;entryY=0.5;entryDx=0;entryDy=0;exitX=1;exitY=0.5;exitDx=0;exitDy=0;" edge="1" parent="1" source="NsUmTAHe3ccR_zdvVloB-77" target="NsUmTAHe3ccR_zdvVloB-79">
          <mxGeometry width="50" height="50" relative="1" as="geometry">
            <mxPoint x="580" y="921.72" as="sourcePoint" />
            <mxPoint x="630" y="871.72" as="targetPoint" />
          </mxGeometry>
        </mxCell>
        <mxCell id="NsUmTAHe3ccR_zdvVloB-81" value="" style="endArrow=classic;html=1;rounded=0;entryX=0.5;entryY=0;entryDx=0;entryDy=0;exitX=0.5;exitY=0;exitDx=0;exitDy=0;" edge="1" parent="1" source="NsUmTAHe3ccR_zdvVloB-79" target="NsUmTAHe3ccR_zdvVloB-78">
          <mxGeometry width="50" height="50" relative="1" as="geometry">
            <mxPoint x="580" y="921.72" as="sourcePoint" />
            <mxPoint x="630" y="871.72" as="targetPoint" />
            <Array as="points">
              <mxPoint x="820" y="836.72" />
            </Array>
          </mxGeometry>
        </mxCell>
        <mxCell id="NsUmTAHe3ccR_zdvVloB-82" value="A OU B" style="text;html=1;strokeColor=none;fillColor=none;align=center;verticalAlign=middle;whiteSpace=wrap;rounded=0;" vertex="1" parent="1">
          <mxGeometry x="575" y="818.72" width="60" height="30" as="geometry" />
        </mxCell>
        <mxCell id="NsUmTAHe3ccR_zdvVloB-83" value="" style="endArrow=classic;html=1;rounded=0;exitX=0.5;exitY=1;exitDx=0;exitDy=0;entryX=0;entryY=0.5;entryDx=0;entryDy=0;" edge="1" parent="1" source="NsUmTAHe3ccR_zdvVloB-69" target="NsUmTAHe3ccR_zdvVloB-78">
          <mxGeometry width="50" height="50" relative="1" as="geometry">
            <mxPoint x="605.5" y="791.72" as="sourcePoint" />
            <mxPoint x="673" y="691.72" as="targetPoint" />
          </mxGeometry>
        </mxCell>
        <mxCell id="NsUmTAHe3ccR_zdvVloB-84" value="Nouvelle pizza créée" style="ellipse;whiteSpace=wrap;html=1;" vertex="1" parent="1">
          <mxGeometry x="933" y="952.72" width="120" height="80" as="geometry" />
        </mxCell>
        <mxCell id="NsUmTAHe3ccR_zdvVloB-87" value="" style="endArrow=classic;html=1;rounded=0;exitX=0.5;exitY=1;exitDx=0;exitDy=0;entryX=0;entryY=0.5;entryDx=0;entryDy=0;" edge="1" parent="1" source="NsUmTAHe3ccR_zdvVloB-76" target="NsUmTAHe3ccR_zdvVloB-84">
          <mxGeometry width="50" height="50" relative="1" as="geometry">
            <mxPoint x="783" y="821.72" as="sourcePoint" />
            <mxPoint x="833" y="771.72" as="targetPoint" />
            <Array as="points">
              <mxPoint x="563" y="991.72" />
            </Array>
          </mxGeometry>
        </mxCell>
        <mxCell id="NsUmTAHe3ccR_zdvVloB-88" value="" style="endArrow=classic;html=1;rounded=0;entryX=1;entryY=0.5;entryDx=0;entryDy=0;exitX=0.5;exitY=0;exitDx=0;exitDy=0;" edge="1" parent="1" source="NsUmTAHe3ccR_zdvVloB-84" target="NsUmTAHe3ccR_zdvVloB-33">
          <mxGeometry width="50" height="50" relative="1" as="geometry">
            <mxPoint x="650" y="820" as="sourcePoint" />
            <mxPoint x="700" y="770" as="targetPoint" />
            <Array as="points">
              <mxPoint x="890" y="440" />
            </Array>
          </mxGeometry>
        </mxCell>
        <mxCell id="fhjNqELQvabnsKbiw1ai-4" value="Souhaite accéder aux statistiques" style="ellipse;whiteSpace=wrap;html=1;" vertex="1" parent="1">
          <mxGeometry x="182.5" y="420" width="120" height="80" as="geometry" />
        </mxCell>
        <mxCell id="fhjNqELQvabnsKbiw1ai-6" value="" style="endArrow=classic;html=1;rounded=0;exitX=0.5;exitY=1;exitDx=0;exitDy=0;entryX=0;entryY=0.5;entryDx=0;entryDy=0;" edge="1" parent="1" source="fhjNqELQvabnsKbiw1ai-4" target="NsUmTAHe3ccR_zdvVloB-31">
          <mxGeometry width="50" height="50" relative="1" as="geometry">
            <mxPoint x="510" y="720" as="sourcePoint" />
            <mxPoint x="560" y="670" as="targetPoint" />
          </mxGeometry>
        </mxCell>
        <mxCell id="fhjNqELQvabnsKbiw1ai-11" value="" style="endArrow=classic;html=1;rounded=0;exitX=0.25;exitY=1;exitDx=0;exitDy=0;entryX=1;entryY=0;entryDx=0;entryDy=0;" edge="1" parent="1" source="NsUmTAHe3ccR_zdvVloB-29" target="fhjNqELQvabnsKbiw1ai-12">
          <mxGeometry width="50" height="50" relative="1" as="geometry">
            <mxPoint x="510" y="720" as="sourcePoint" />
            <mxPoint x="140" y="740" as="targetPoint" />
          </mxGeometry>
        </mxCell>
        <mxCell id="fhjNqELQvabnsKbiw1ai-12" value="Accès au chiffre d&#39;affaire journalier" style="ellipse;whiteSpace=wrap;html=1;" vertex="1" parent="1">
          <mxGeometry y="720" width="120" height="80" as="geometry" />
        </mxCell>
        <mxCell id="fhjNqELQvabnsKbiw1ai-13" value="Accès au chiffre d&#39;affaire hebdomadaire" style="ellipse;whiteSpace=wrap;html=1;" vertex="1" parent="1">
          <mxGeometry x="62.5" y="800" width="120" height="80" as="geometry" />
        </mxCell>
        <mxCell id="fhjNqELQvabnsKbiw1ai-14" value="Accès au chiffre d&#39;affaire mensuel" style="ellipse;whiteSpace=wrap;html=1;" vertex="1" parent="1">
          <mxGeometry x="150" y="880" width="120" height="80" as="geometry" />
        </mxCell>
        <mxCell id="fhjNqELQvabnsKbiw1ai-15" value="" style="endArrow=classic;html=1;rounded=0;exitX=0.363;exitY=1.02;exitDx=0;exitDy=0;exitPerimeter=0;entryX=1;entryY=0;entryDx=0;entryDy=0;" edge="1" parent="1" source="fhjNqELQvabnsKbiw1ai-10" target="fhjNqELQvabnsKbiw1ai-13">
          <mxGeometry width="50" height="50" relative="1" as="geometry">
            <mxPoint x="510" y="720" as="sourcePoint" />
            <mxPoint x="560" y="670" as="targetPoint" />
          </mxGeometry>
        </mxCell>
        <mxCell id="fhjNqELQvabnsKbiw1ai-16" value="" style="endArrow=classic;html=1;rounded=0;exitX=0.25;exitY=1;exitDx=0;exitDy=0;entryX=0.5;entryY=0;entryDx=0;entryDy=0;" edge="1" parent="1" source="NsUmTAHe3ccR_zdvVloB-30" target="fhjNqELQvabnsKbiw1ai-14">
          <mxGeometry width="50" height="50" relative="1" as="geometry">
            <mxPoint x="510" y="720" as="sourcePoint" />
            <mxPoint x="560" y="670" as="targetPoint" />
          </mxGeometry>
        </mxCell>
        <mxCell id="fhjNqELQvabnsKbiw1ai-20" value="" style="endArrow=none;html=1;rounded=0;exitX=0;exitY=0.5;exitDx=0;exitDy=0;" edge="1" parent="1" source="fhjNqELQvabnsKbiw1ai-13">
          <mxGeometry width="50" height="50" relative="1" as="geometry">
            <mxPoint x="180" y="620" as="sourcePoint" />
            <mxPoint x="-160" y="840" as="targetPoint" />
          </mxGeometry>
        </mxCell>
        <mxCell id="fhjNqELQvabnsKbiw1ai-21" value="" style="endArrow=none;html=1;rounded=0;entryX=0;entryY=0.5;entryDx=0;entryDy=0;" edge="1" parent="1" target="fhjNqELQvabnsKbiw1ai-14">
          <mxGeometry width="50" height="50" relative="1" as="geometry">
            <mxPoint x="-160" y="700" as="sourcePoint" />
            <mxPoint x="230" y="570" as="targetPoint" />
            <Array as="points">
              <mxPoint x="-160" y="920" />
            </Array>
          </mxGeometry>
        </mxCell>
        <mxCell id="fhjNqELQvabnsKbiw1ai-22" value="" style="endArrow=none;html=1;rounded=0;exitX=0;exitY=0.5;exitDx=0;exitDy=0;" edge="1" parent="1" source="fhjNqELQvabnsKbiw1ai-12">
          <mxGeometry width="50" height="50" relative="1" as="geometry">
            <mxPoint x="180" y="620" as="sourcePoint" />
            <mxPoint x="-160" y="760" as="targetPoint" />
          </mxGeometry>
        </mxCell>
        <mxCell id="fhjNqELQvabnsKbiw1ai-23" value="" style="endArrow=classic;html=1;rounded=0;exitX=1;exitY=1;exitDx=0;exitDy=0;entryX=0.108;entryY=0.238;entryDx=0;entryDy=0;entryPerimeter=0;" edge="1" parent="1" source="NsUmTAHe3ccR_zdvVloB-33" target="fhjNqELQvabnsKbiw1ai-24">
          <mxGeometry width="50" height="50" relative="1" as="geometry">
            <mxPoint x="640" y="620" as="sourcePoint" />
            <mxPoint x="380" y="450" as="targetPoint" />
          </mxGeometry>
        </mxCell>
        <mxCell id="fhjNqELQvabnsKbiw1ai-24" value="Donner la liste des allergènes d&#39;une pizza" style="ellipse;whiteSpace=wrap;html=1;" vertex="1" parent="1">
          <mxGeometry x="380" y="551" width="120" height="80" as="geometry" />
        </mxCell>
        <mxCell id="fhjNqELQvabnsKbiw1ai-25" value="" style="endArrow=classic;html=1;rounded=0;exitX=0.5;exitY=0;exitDx=0;exitDy=0;entryX=0.946;entryY=0.763;entryDx=0;entryDy=0;entryPerimeter=0;" edge="1" parent="1" source="fhjNqELQvabnsKbiw1ai-24" target="NsUmTAHe3ccR_zdvVloB-33">
          <mxGeometry width="50" height="50" relative="1" as="geometry">
            <mxPoint x="640" y="620" as="sourcePoint" />
            <mxPoint x="690" y="570" as="targetPoint" />
          </mxGeometry>
        </mxCell>
      </root>
    </mxGraphModel>
  </diagram>
</mxfile>
